<?xml version="1.0" standalone="no"?>
 <!DOCTYPE svg PUBLIC "-//W3C//DTD SVG 1.1//EN" 
 "http://www.w3.org/Graphics/SVG/1.1/DTD/svg11.dtd"> 
<svg
  xmlns:svg="http://www.w3.org/2000/svg"
  xmlns="http://www.w3.org/2000/svg"
  xmlns:xlink="http://www.w3.org/1999/xlink"
  version="1.1"
  width="29.700220cm" height="21.000720cm" viewBox="0 0 116930 82680">
<title>SVG Picture created as bb.svg date 2022/05/20 00:01:51 </title>
  <desc>Picture generated by Eeschema-SVG </desc>
<g style="fill:#000000; fill-opacity:1.000000;stroke:#000000; stroke-opacity:1.000000;
stroke-linecap:round; stroke-linejoin:round;"
 transform="translate(0 0) scale(1 1)">
</g>
<g style="fill:#000000; fill-opacity:0.0; 
stroke:#000000; stroke-width:60.000000; stroke-opacity:1; 
stroke-linecap:round; stroke-linejoin:round;">
<g >
</g>
<g style="fill:#840000; fill-opacity:0.0; 
stroke:#840000; stroke-width:60.000000; stroke-opacity:1; 
stroke-linecap:round; stroke-linejoin:round;">
</g>
<g style="fill:#FFFFC2; fill-opacity:0.0; 
stroke:#FFFFC2; stroke-width:60.000000; stroke-opacity:1; 
stroke-linecap:round; stroke-linejoin:round;">
</g>
<g style="fill:#FFFFC2; fill-opacity:0.6; 
stroke:#FFFFC2; stroke-width:0.039370; stroke-opacity:1; 
stroke-linecap:round; stroke-linejoin:round;">
<path d="M35949.696330 28950.210170 A766.102362 766.102362 0.0 0 0 35955.122094 30193.695822 L 36400.000000 29570.000000 Z" />
</g>
<g style="fill:#FFFFC2; fill-opacity:0.0; 
stroke:#FFFFC2; stroke-width:0.039370; stroke-opacity:1; 
stroke-linecap:round; stroke-linejoin:round;">
<path d="M35949.696330 28950.210170 A766.102362 766.102362 0.0 0 0 35955.122094 30193.695822" />
</g>
<g style="fill:#840000; fill-opacity:0.0; 
stroke:#840000; stroke-width:0.039370; stroke-opacity:1; 
stroke-linecap:round; stroke-linejoin:round;">
</g>
<g style="fill:#840000; fill-opacity:0.0; 
stroke:#840000; stroke-width:100.000000; stroke-opacity:1; 
stroke-linecap:round; stroke-linejoin:round;">
<path d="M35949.696330 28950.210170 A766.102362 766.102362 0.0 0 0 35955.122094 30193.695822" />
</g>
<g style="fill:#FFFFC2; fill-opacity:0.0; 
stroke:#FFFFC2; stroke-width:100.000000; stroke-opacity:1; 
stroke-linecap:round; stroke-linejoin:round;">
</g>
<g style="fill:#FFFFC2; fill-opacity:0.6; 
stroke:#FFFFC2; stroke-width:0.039370; stroke-opacity:1; 
stroke-linecap:round; stroke-linejoin:round;">
<rect x="36000.000000" y="27000.000000" width="7000.000000" height="5000.000000" rx="0.000000" />
</g>
<g style="fill:#840000; fill-opacity:0.6; 
stroke:#840000; stroke-width:0.039370; stroke-opacity:1; 
stroke-linecap:round; stroke-linejoin:round;">
</g>
<g style="fill:#840000; fill-opacity:0.0; 
stroke:#840000; stroke-width:100.000000; stroke-opacity:1; 
stroke-linecap:round; stroke-linejoin:round;">
<rect x="36000.000000" y="27000.000000" width="7000.000000" height="5000.000000" rx="0.000000" />
<path d="M35949.696330 28950.210170 A766.102362 766.102362 0.0 0 0 35955.122094 30193.695822" />
</g>
<g style="fill:#840000; fill-opacity:0.0; 
stroke:#840000; stroke-width:60.000000; stroke-opacity:1; 
stroke-linecap:round; stroke-linejoin:round;">
<path style="fill:#840000; fill-opacity:0.0; 
stroke:#840000; stroke-width:60.000000; stroke-opacity:1; 
stroke-linecap:round; stroke-linejoin:round;fill:none"
d="M 40750.000000,31500.000000
40050.000000,31500.000000
" /> 
<path style="fill:#840000; fill-opacity:0.0; 
stroke:#840000; stroke-width:60.000000; stroke-opacity:1; 
stroke-linecap:round; stroke-linejoin:round;fill:none"
d="M 40750.000000,27500.000000
40050.000000,27500.000000
" /> 
<rect x="37600.000000" y="27300.000000" width="2450.000000" height="4400.000000" rx="0.000000" />
<path style="fill:#840000; fill-opacity:0.0; 
stroke:#840000; stroke-width:60.000000; stroke-opacity:1; 
stroke-linecap:round; stroke-linejoin:round;fill:none"
d="M 36550.000000,29350.000000
36200.000000,29000.000000
" /> 
<path style="fill:#840000; fill-opacity:0.0; 
stroke:#840000; stroke-width:60.000000; stroke-opacity:1; 
stroke-linecap:round; stroke-linejoin:round;fill:none"
d="M 36550.000000,29350.000000
36350.000000,29350.000000
" /> 
<path style="fill:#840000; fill-opacity:0.0; 
stroke:#840000; stroke-width:60.000000; stroke-opacity:1; 
stroke-linecap:round; stroke-linejoin:round;fill:none"
d="M 36550.000000,29350.000000
36550.000000,29150.000000
" /> 
<path style="fill:#840000; fill-opacity:0.0; 
stroke:#840000; stroke-width:60.000000; stroke-opacity:1; 
stroke-linecap:round; stroke-linejoin:round;fill:none"
d="M 36600.000000,29750.000000
36250.000000,29400.000000
" /> 
<path style="fill:#840000; fill-opacity:0.0; 
stroke:#840000; stroke-width:60.000000; stroke-opacity:1; 
stroke-linecap:round; stroke-linejoin:round;fill:none"
d="M 36600.000000,29750.000000
36400.000000,29750.000000
" /> 
<path style="fill:#840000; fill-opacity:0.0; 
stroke:#840000; stroke-width:60.000000; stroke-opacity:1; 
stroke-linecap:round; stroke-linejoin:round;fill:none"
d="M 36600.000000,29750.000000
36600.000000,29550.000000
" /> 
<path style="fill:#840000; fill-opacity:0.0; 
stroke:#840000; stroke-width:60.000000; stroke-opacity:1; 
stroke-linecap:round; stroke-linejoin:round;fill:none"
d="M 36700.000000,29900.000000
37350.000000,29900.000000
" /> 
<path style="fill:#840000; fill-opacity:0.0; 
stroke:#840000; stroke-width:60.000000; stroke-opacity:1; 
stroke-linecap:round; stroke-linejoin:round;fill:none"
d="M 40500.000000,30650.000000
40050.000000,30650.000000
" /> 
<path style="fill:#840000; fill-opacity:0.0; 
stroke:#840000; stroke-width:60.000000; stroke-opacity:1; 
stroke-linecap:round; stroke-linejoin:round;fill:none"
d="M 40500.000000,30250.000000
40500.000000,31000.000000
" /> 
<path style="fill:#840000; fill-opacity:0.0; 
stroke:#840000; stroke-width:60.000000; stroke-opacity:1; 
stroke-linecap:round; stroke-linejoin:round;fill:none"
d="M 40550.000000,30900.000000
40600.000000,30900.000000
" /> 
<path style="fill:#840000; fill-opacity:0.0; 
stroke:#840000; stroke-width:60.000000; stroke-opacity:1; 
stroke-linecap:round; stroke-linejoin:round;fill:none"
d="M 40650.000000,30900.000000
40600.000000,30900.000000
" /> 
<path style="fill:#840000; fill-opacity:0.0; 
stroke:#840000; stroke-width:60.000000; stroke-opacity:1; 
stroke-linecap:round; stroke-linejoin:round;fill:none"
d="M 40650.000000,30900.000000
40650.000000,30800.000000
" /> 
<path style="fill:#840000; fill-opacity:0.0; 
stroke:#840000; stroke-width:60.000000; stroke-opacity:1; 
stroke-linecap:round; stroke-linejoin:round;fill:none"
d="M 40750.000000,29500.000000
40750.000000,29000.000000
" /> 
<path style="fill:#840000; fill-opacity:0.0; 
stroke:#840000; stroke-width:60.000000; stroke-opacity:1; 
stroke-linecap:round; stroke-linejoin:round;fill:none"
d="M 40750.000000,27750.000000
40750.000000,27500.000000
41000.000000,27500.000000
" /> 
</g>
<g style="fill:#840000; fill-opacity:1.0; 
stroke:#840000; stroke-width:60.000000; stroke-opacity:1; 
stroke-linecap:round; stroke-linejoin:round;">
<path style="fill:#840000; fill-opacity:1.0; 
stroke:#840000; stroke-width:60.000000; stroke-opacity:1; 
stroke-linecap:round; stroke-linejoin:round;fill-rule:evenodd;"
d="M 36700.000000,29250.000000
37350.000000,29250.000000
37000.000000,29900.000000
Z" /> 
</g>
<g style="fill:#840000; fill-opacity:0.0; 
stroke:#840000; stroke-width:60.000000; stroke-opacity:1; 
stroke-linecap:round; stroke-linejoin:round;">
<path style="fill:#840000; fill-opacity:0.0; 
stroke:#840000; stroke-width:60.000000; stroke-opacity:1; 
stroke-linecap:round; stroke-linejoin:round;fill:none"
d="M 37600.000000,28950.000000
37000.000000,28950.000000
37000.000000,30200.000000
37600.000000,30200.000000
" /> 
<path style="fill:#840000; fill-opacity:0.0; 
stroke:#840000; stroke-width:60.000000; stroke-opacity:1; 
stroke-linecap:round; stroke-linejoin:round;fill:none"
d="M 40500.000000,30750.000000
40750.000000,31000.000000
40750.000000,31500.000000
41000.000000,31500.000000
" /> 
<path style="fill:#840000; fill-opacity:0.0; 
stroke:#840000; stroke-width:60.000000; stroke-opacity:1; 
stroke-linecap:round; stroke-linejoin:round;fill:none"
d="M 40500.000000,30500.000000
40750.000000,30250.000000
40750.000000,29500.000000
41000.000000,29500.000000
" /> 
<rect x="40500.000000" y="27750.000000" width="500.000000" height="1250.000000" rx="0.000000" />
</g>
<g style="fill:#840000; fill-opacity:0.0; 
stroke:#840000; stroke-width:100.000000; stroke-opacity:1; 
stroke-linecap:round; stroke-linejoin:round;">
<rect x="36000.000000" y="27000.000000" width="7000.000000" height="5000.000000" rx="0.000000" />
</g>
<g style="fill:#840000; fill-opacity:0.0; 
stroke:#840000; stroke-width:75.000000; stroke-opacity:1; 
stroke-linecap:round; stroke-linejoin:round;">
<g transform="rotate(-90.000000 38750.000000 29400.000000)">
<text x="38750.000000" y="29700.000000"
textLength="3057.165354" font-size="800.000000" lengthAdjust="spacingAndGlyphs"
text-anchor="middle" opacity="0">DEMOD</text>
</g>
<g class="stroked-text"><desc>DEMOD</desc>
<path d="M39021 30785
L38421 30785
L38421 30642
L38450 30557
L38507 30500
L38564 30471
L38678 30442
L38764 30442
L38878 30471
L38935 30500
L38992 30557
L39021 30642
L39021 30785
" />
<path d="M38707 30185
L38707 29985
" />
<path d="M39021 29900
L39021 30185
L38421 30185
L38421 29900
" />
<path d="M39021 29642
L38421 29642
L38850 29442
L38421 29242
L39021 29242
" />
<path d="M38421 28842
L38421 28728
L38450 28671
L38507 28614
L38621 28585
L38821 28585
L38935 28614
L38992 28671
L39021 28728
L39021 28842
L38992 28900
L38935 28957
L38821 28985
L38621 28985
L38507 28957
L38450 28900
L38421 28842
" />
<path d="M39021 28328
L38421 28328
L38421 28185
L38450 28100
L38507 28042
L38564 28014
L38678 27985
L38764 27985
L38878 28014
L38935 28042
L38992 28100
L39021 28185
L39021 28328
" />
</g></g>
<g style="fill:#840000; fill-opacity:0.0; 
stroke:#840000; stroke-width:60.000000; stroke-opacity:1; 
stroke-linecap:round; stroke-linejoin:round;">
<path d="M43000 29500
L44000 29500
" />
</g>
<g style="fill:#008484; fill-opacity:0.0; 
stroke:#008484; stroke-width:60.000000; stroke-opacity:1; 
stroke-linecap:round; stroke-linejoin:round;">
<text x="42800.000000" y="29750.000000"
textLength="1503.582677" font-size="666.653543" lengthAdjust="spacingAndGlyphs"
text-anchor="end" opacity="0">OUT</text>
<g class="stroked-text"><desc>OUT</desc>
<path d="M41555 29226
L41650 29226
L41698 29250
L41746 29297
L41770 29392
L41770 29559
L41746 29654
L41698 29702
L41650 29726
L41555 29726
L41508 29702
L41460 29654
L41436 29559
L41436 29392
L41460 29297
L41508 29250
L41555 29226
" />
<path d="M41984 29226
L41984 29630
L42008 29678
L42031 29702
L42079 29726
L42174 29726
L42222 29702
L42246 29678
L42270 29630
L42270 29226
" />
<path d="M42436 29226
L42722 29226
" />
<path d="M42579 29726
L42579 29226
" />
</g></g>
<g style="fill:#840000; fill-opacity:0.0; 
stroke:#840000; stroke-width:60.000000; stroke-opacity:1; 
stroke-linecap:round; stroke-linejoin:round;">
<text x="43500.000000" y="29400.000000"
textLength="536.181102" font-size="666.653543" lengthAdjust="spacingAndGlyphs"
text-anchor="middle" opacity="0">1</text>
<g class="stroked-text"><desc>1</desc>
<path d="M43642 29376
L43357 29376
" />
<path d="M43500 29376
L43500 28876
L43452 28947
L43404 28995
L43357 29019
" />
</g><path d="M43000 31500
L44000 31500
" />
</g>
<g style="fill:#008484; fill-opacity:0.0; 
stroke:#008484; stroke-width:60.000000; stroke-opacity:1; 
stroke-linecap:round; stroke-linejoin:round;">
<text x="42800.000000" y="31750.000000"
textLength="1583.818898" font-size="666.653543" lengthAdjust="spacingAndGlyphs"
text-anchor="end" opacity="0">GND</text>
<g class="stroked-text"><desc>GND</desc>
<path d="M41627 31250
L41579 31226
L41508 31226
L41436 31250
L41389 31297
L41365 31345
L41341 31440
L41341 31511
L41365 31607
L41389 31654
L41436 31702
L41508 31726
L41555 31726
L41627 31702
L41650 31678
L41650 31511
L41555 31511
" />
<path d="M41865 31726
L41865 31226
L42150 31726
L42150 31226
" />
<path d="M42389 31726
L42389 31226
L42508 31226
L42579 31250
L42627 31297
L42650 31345
L42674 31440
L42674 31511
L42650 31607
L42627 31654
L42579 31702
L42508 31726
L42389 31726
" />
</g></g>
<g style="fill:#840000; fill-opacity:0.0; 
stroke:#840000; stroke-width:60.000000; stroke-opacity:1; 
stroke-linecap:round; stroke-linejoin:round;">
<text x="43500.000000" y="31400.000000"
textLength="536.181102" font-size="666.653543" lengthAdjust="spacingAndGlyphs"
text-anchor="middle" opacity="0">2</text>
<g class="stroked-text"><desc>2</desc>
<path d="M43357 30923
L43380 30900
L43428 30876
L43547 30876
L43595 30900
L43619 30923
L43642 30971
L43642 31019
L43619 31090
L43333 31376
L43642 31376
" />
</g><path d="M43000 27500
L44000 27500
" />
</g>
<g style="fill:#008484; fill-opacity:0.0; 
stroke:#008484; stroke-width:60.000000; stroke-opacity:1; 
stroke-linecap:round; stroke-linejoin:round;">
<text x="42800.000000" y="27750.000000"
textLength="893.346457" font-size="666.653543" lengthAdjust="spacingAndGlyphs"
text-anchor="end" opacity="0">Vs</text>
<g class="stroked-text"><desc>Vs</desc>
<path d="M41984 27226
L42150 27726
L42317 27226
" />
<path d="M42460 27702
L42508 27726
L42603 27726
L42650 27702
L42674 27654
L42674 27630
L42650 27583
L42603 27559
L42531 27559
L42484 27535
L42460 27488
L42460 27464
L42484 27416
L42531 27392
L42603 27392
L42650 27416
" />
</g></g>
<g style="fill:#840000; fill-opacity:0.0; 
stroke:#840000; stroke-width:60.000000; stroke-opacity:1; 
stroke-linecap:round; stroke-linejoin:round;">
<text x="43500.000000" y="27400.000000"
textLength="536.181102" font-size="666.653543" lengthAdjust="spacingAndGlyphs"
text-anchor="middle" opacity="0">3</text>
<g class="stroked-text"><desc>3</desc>
<path d="M43333 26876
L43642 26876
L43476 27066
L43547 27066
L43595 27090
L43619 27114
L43642 27161
L43642 27280
L43619 27328
L43595 27352
L43547 27376
L43404 27376
L43357 27352
L43333 27328
" />
</g></g>
<g style="fill:#008484; fill-opacity:0.0; 
stroke:#008484; stroke-width:60.000000; stroke-opacity:1; 
stroke-linecap:round; stroke-linejoin:round;">
<text x="36500.000000" y="33250.000000"
textLength="1060.000000" font-size="666.653543" lengthAdjust="spacingAndGlyphs"
text-anchor="middle" opacity="0">U1</text>
<g class="stroked-text"><desc>U1</desc>
<path d="M36119 32726
L36119 33130
L36142 33178
L36166 33202
L36214 33226
L36309 33226
L36357 33202
L36380 33178
L36404 33130
L36404 32726
" />
<path d="M36904 33226
L36619 33226
" />
<path d="M36761 33226
L36761 32726
L36714 32797
L36666 32845
L36619 32869
" />
</g><text x="38000.000000" y="34250.000000"
textLength="3702.874016" font-size="666.653543" lengthAdjust="spacingAndGlyphs"
text-anchor="middle" opacity="0">TSOP13xx</text>
<g class="stroked-text"><desc>TSOP13xx</desc>
<path d="M36226 33726
L36511 33726
" />
<path d="M36369 34226
L36369 33726
" />
<path d="M36654 34202
L36726 34226
L36845 34226
L36892 34202
L36916 34178
L36940 34130
L36940 34083
L36916 34035
L36892 34011
L36845 33988
L36750 33964
L36702 33940
L36678 33916
L36654 33869
L36654 33821
L36678 33773
L36702 33750
L36750 33726
L36869 33726
L36940 33750
" />
<path d="M37250 33726
L37345 33726
L37392 33750
L37440 33797
L37464 33892
L37464 34059
L37440 34154
L37392 34202
L37345 34226
L37250 34226
L37202 34202
L37154 34154
L37130 34059
L37130 33892
L37154 33797
L37202 33750
L37250 33726
" />
<path d="M37678 34226
L37678 33726
L37869 33726
L37916 33750
L37940 33773
L37964 33821
L37964 33892
L37940 33940
L37916 33964
L37869 33988
L37678 33988
" />
<path d="M38440 34226
L38154 34226
" />
<path d="M38297 34226
L38297 33726
L38250 33797
L38202 33845
L38154 33869
" />
<path d="M38607 33726
L38916 33726
L38750 33916
L38821 33916
L38869 33940
L38892 33964
L38916 34011
L38916 34130
L38892 34178
L38869 34202
L38821 34226
L38678 34226
L38630 34202
L38607 34178
" />
<path d="M39083 34226
L39345 33892
" />
<path d="M39083 33892
L39345 34226
" />
<path d="M39488 34226
L39750 33892
" />
<path d="M39488 33892
L39750 34226
" />
</g></g>
</g>
<g style="fill:#008484; fill-opacity:0.0; 
stroke:#008484; stroke-width:60.000000; stroke-opacity:1; 
stroke-linecap:round; stroke-linejoin:round;">
<g >
</g>
<g style="fill:#840000; fill-opacity:0.0; 
stroke:#840000; stroke-width:60.000000; stroke-opacity:1; 
stroke-linecap:round; stroke-linejoin:round;">
<path style="fill:#840000; fill-opacity:0.0; 
stroke:#840000; stroke-width:60.000000; stroke-opacity:1; 
stroke-linecap:round; stroke-linejoin:round;fill:none"
d="M 51000.000000,33000.000000
50600.000000,33000.000000
" /> 
</g>
<g style="fill:#840000; fill-opacity:1.0; 
stroke:#840000; stroke-width:60.000000; stroke-opacity:1; 
stroke-linecap:round; stroke-linejoin:round;">
<path style="fill:#840000; fill-opacity:1.0; 
stroke:#840000; stroke-width:60.000000; stroke-opacity:1; 
stroke-linecap:round; stroke-linejoin:round;fill-rule:evenodd;"
d="M 50450.000000,33000.000000
50900.000000,32800.000000
50900.000000,33200.000000
Z" /> 
</g>
<g style="fill:#840000; fill-opacity:0.0; 
stroke:#840000; stroke-width:100.000000; stroke-opacity:1; 
stroke-linecap:round; stroke-linejoin:round;">
<rect x="49600.000000" y="32000.000000" width="800.000000" height="2000.000000" rx="0.000000" />
</g>
<g style="fill:#840000; fill-opacity:0.0; 
stroke:#840000; stroke-width:60.000000; stroke-opacity:1; 
stroke-linecap:round; stroke-linejoin:round;">
<path d="M50000 32000
L50000 31500
" />
<g transform="rotate(-90.000000 49900.000000 31750.000000)">
<text x="49900.000000" y="31750.000000"
textLength="536.181102" font-size="666.653543" lengthAdjust="spacingAndGlyphs"
text-anchor="middle" opacity="0">1</text>
</g>
<g class="stroked-text"><desc>1</desc>
<path d="M49876 31607
L49876 31892
" />
<path d="M49876 31750
L49376 31750
L49447 31797
L49495 31845
L49519 31892
" />
</g><path d="M51000 33000
L51500 33000
" />
<text x="51250.000000" y="32900.000000"
textLength="536.181102" font-size="666.653543" lengthAdjust="spacingAndGlyphs"
text-anchor="middle" opacity="0">2</text>
<g class="stroked-text"><desc>2</desc>
<path d="M51107 32423
L51130 32400
L51178 32376
L51297 32376
L51345 32400
L51369 32423
L51392 32471
L51392 32519
L51369 32590
L51083 32876
L51392 32876
" />
</g><path d="M50000 34000
L50000 34500
" />
<g transform="rotate(-90.000000 49900.000000 34250.000000)">
<text x="49900.000000" y="34250.000000"
textLength="536.181102" font-size="666.653543" lengthAdjust="spacingAndGlyphs"
text-anchor="middle" opacity="0">3</text>
</g>
<g class="stroked-text"><desc>3</desc>
<path d="M49376 34416
L49376 34107
L49566 34273
L49566 34202
L49590 34154
L49614 34130
L49661 34107
L49780 34107
L49828 34130
L49852 34154
L49876 34202
L49876 34345
L49852 34392
L49828 34416
" />
</g></g>
<g style="fill:#008484; fill-opacity:0.0; 
stroke:#008484; stroke-width:60.000000; stroke-opacity:1; 
stroke-linecap:round; stroke-linejoin:round;">
<text x="48566.338583" y="32790.000000"
textLength="1464.763780" font-size="666.653543" lengthAdjust="spacingAndGlyphs"
text-anchor="middle" opacity="0">RV1</text>
<g class="stroked-text"><desc>RV1</desc>
<path d="M48268 32766
L48102 32528
" />
<path d="M47982 32766
L47982 32266
L48173 32266
L48221 32290
L48244 32313
L48268 32361
L48268 32432
L48244 32480
L48221 32504
L48173 32528
L47982 32528
" />
<path d="M48411 32266
L48578 32766
L48744 32266
" />
<path d="M49173 32766
L48887 32766
" />
<path d="M49030 32766
L49030 32266
L48982 32337
L48935 32385
L48887 32409
" />
</g><text x="48125.866142" y="33700.000000"
textLength="2345.708661" font-size="666.653543" lengthAdjust="spacingAndGlyphs"
text-anchor="middle" opacity="0">R_POT</text>
<g class="stroked-text"><desc>R_POT</desc>
<path d="M47387 33676
L47221 33438
" />
<path d="M47102 33676
L47102 33176
L47292 33176
L47340 33200
L47363 33223
L47387 33271
L47387 33342
L47363 33390
L47340 33414
L47292 33438
L47102 33438
" />
<path d="M47482 33723
L47863 33723
" />
<path d="M47982 33676
L47982 33176
L48173 33176
L48221 33200
L48244 33223
L48268 33271
L48268 33342
L48244 33390
L48221 33414
L48173 33438
L47982 33438
" />
<path d="M48578 33176
L48673 33176
L48721 33200
L48768 33247
L48792 33342
L48792 33509
L48768 33604
L48721 33652
L48673 33676
L48578 33676
L48530 33652
L48482 33604
L48459 33509
L48459 33342
L48482 33247
L48530 33200
L48578 33176
" />
<path d="M48935 33176
L49221 33176
" />
<path d="M49078 33676
L49078 33176
" />
</g></g>
</g>
<g style="fill:#008484; fill-opacity:0.0; 
stroke:#008484; stroke-width:60.000000; stroke-opacity:1; 
stroke-linecap:round; stroke-linejoin:round;">
<g >
</g>
<g style="fill:#840000; fill-opacity:0.0; 
stroke:#840000; stroke-width:60.000000; stroke-opacity:1; 
stroke-linecap:round; stroke-linejoin:round;">
<path style="fill:#840000; fill-opacity:0.0; 
stroke:#840000; stroke-width:60.000000; stroke-opacity:1; 
stroke-linecap:round; stroke-linejoin:round;fill:none"
d="M 46500.000000,27000.000000
46500.000000,26000.000000
" /> 
</g>
<g style="fill:#840000; fill-opacity:0.0; 
stroke:#840000; stroke-width:80.000000; stroke-opacity:1; 
stroke-linecap:round; stroke-linejoin:round;">
<path style="fill:#840000; fill-opacity:0.0; 
stroke:#840000; stroke-width:80.000000; stroke-opacity:1; 
stroke-linecap:round; stroke-linejoin:round;fill:none"
d="M 46000.000000,26000.000000
47000.000000,26000.000000
47000.000000,26200.000000
" /> 
</g>
<g style="fill:#840000; fill-opacity:1.0; 
stroke:#840000; stroke-width:80.000000; stroke-opacity:1; 
stroke-linecap:round; stroke-linejoin:round;">
<path style="fill:#840000; fill-opacity:1.0; 
stroke:#840000; stroke-width:80.000000; stroke-opacity:1; 
stroke-linecap:round; stroke-linejoin:round;fill-rule:evenodd;"
d="M 46000.000000,27000.000000
47000.000000,27000.000000
46500.000000,26000.000000
Z" /> 
</g>
<g style="fill:#840000; fill-opacity:1.0; 
stroke:#840000; stroke-width:60.000000; stroke-opacity:1; 
stroke-linecap:round; stroke-linejoin:round;">
</g>
<g style="fill:#840000; fill-opacity:0.0; 
stroke:#840000; stroke-width:60.000000; stroke-opacity:1; 
stroke-linecap:round; stroke-linejoin:round;">
<path d="M46500 26000
L46500 25000
" />
<path d="M46500 27000
L46500 28000
" />
</g>
<g style="fill:#008484; fill-opacity:0.0; 
stroke:#008484; stroke-width:60.000000; stroke-opacity:1; 
stroke-linecap:round; stroke-linejoin:round;">
<text x="47500.000000" y="26250.000000"
textLength="1036.181102" font-size="666.653543" lengthAdjust="spacingAndGlyphs"
text-anchor="middle" opacity="0">D1</text>
<g class="stroked-text"><desc>D1</desc>
<path d="M47130 26226
L47130 25726
L47250 25726
L47321 25750
L47369 25797
L47392 25845
L47416 25940
L47416 26011
L47392 26107
L47369 26154
L47321 26202
L47250 26226
L47130 26226
" />
<path d="M47892 26226
L47607 26226
" />
<path d="M47750 26226
L47750 25726
L47702 25797
L47654 25845
L47607 25869
" />
</g><text x="48000.000000" y="27250.000000"
textLength="1679.055118" font-size="666.653543" lengthAdjust="spacingAndGlyphs"
text-anchor="middle" opacity="0">4.7V</text>
<g class="stroked-text"><desc>4.7V</desc>
<path d="M47523 26892
L47523 27226
" />
<path d="M47404 26702
L47285 27059
L47595 27059
" />
<path d="M47785 27178
L47809 27202
L47785 27226
L47761 27202
L47785 27178
L47785 27226
" />
<path d="M47976 26726
L48309 26726
L48095 27226
" />
<path d="M48428 26726
L48595 27226
L48761 26726
" />
</g></g>
</g>
<g style="fill:#008484; fill-opacity:0.0; 
stroke:#008484; stroke-width:60.000000; stroke-opacity:1; 
stroke-linecap:round; stroke-linejoin:round;">
<g >
</g>
<g style="fill:#840000; fill-opacity:0.0; 
stroke:#840000; stroke-width:60.000000; stroke-opacity:1; 
stroke-linecap:round; stroke-linejoin:round;">
</g>
<g style="fill:#840000; fill-opacity:0.0; 
stroke:#840000; stroke-width:80.000000; stroke-opacity:1; 
stroke-linecap:round; stroke-linejoin:round;">
<rect x="43700.000000" y="21300.000000" width="600.000000" height="1400.000000" rx="0.000000" />
</g>
<g style="fill:#840000; fill-opacity:0.0; 
stroke:#840000; stroke-width:60.000000; stroke-opacity:1; 
stroke-linecap:round; stroke-linejoin:round;">
<path d="M44000 22700
L44000 23000
" />
<path d="M44000 21300
L44000 21000
" />
</g>
<g style="fill:#008484; fill-opacity:0.0; 
stroke:#008484; stroke-width:60.000000; stroke-opacity:1; 
stroke-linecap:round; stroke-linejoin:round;">
<text x="45109.330709" y="21789.960630"
textLength="1036.181102" font-size="666.653543" lengthAdjust="spacingAndGlyphs"
text-anchor="middle" opacity="0">R1</text>
<g class="stroked-text"><desc>R1</desc>
<path d="M45025 21766
L44859 21528
" />
<path d="M44740 21766
L44740 21266
L44930 21266
L44978 21289
L45002 21313
L45025 21361
L45025 21432
L45002 21480
L44978 21504
L44930 21528
L44740 21528
" />
<path d="M45502 21766
L45216 21766
" />
<path d="M45359 21766
L45359 21266
L45311 21337
L45264 21385
L45216 21408
" />
</g><text x="45061.732283" y="22699.960630"
textLength="940.944882" font-size="666.653543" lengthAdjust="spacingAndGlyphs"
text-anchor="middle" opacity="0">1k</text>
<g class="stroked-text"><desc>1k</desc>
<path d="M45002 22676
L44716 22676
" />
<path d="M44859 22676
L44859 22176
L44811 22247
L44764 22295
L44716 22318
" />
<path d="M45216 22676
L45216 22176
" />
<path d="M45264 22485
L45406 22676
" />
<path d="M45406 22342
L45216 22533
" />
</g></g>
</g>
<g style="fill:#008484; fill-opacity:0.0; 
stroke:#008484; stroke-width:60.000000; stroke-opacity:1; 
stroke-linecap:round; stroke-linejoin:round;">
<g >
</g>
<g style="fill:#840000; fill-opacity:0.0; 
stroke:#840000; stroke-width:60.000000; stroke-opacity:1; 
stroke-linecap:round; stroke-linejoin:round;">
</g>
<g style="fill:#840000; fill-opacity:0.0; 
stroke:#840000; stroke-width:80.000000; stroke-opacity:1; 
stroke-linecap:round; stroke-linejoin:round;">
<rect x="61800.000000" y="30700.000000" width="1400.000000" height="600.000000" rx="0.000000" />
</g>
<g style="fill:#840000; fill-opacity:0.0; 
stroke:#840000; stroke-width:60.000000; stroke-opacity:1; 
stroke-linecap:round; stroke-linejoin:round;">
<path d="M63200 31000
L63500 31000
" />
<path d="M61800 31000
L61500 31000
" />
</g>
<g style="fill:#008484; fill-opacity:0.0; 
stroke:#008484; stroke-width:60.000000; stroke-opacity:1; 
stroke-linecap:round; stroke-linejoin:round;">
<text x="63000.000000" y="32250.000000"
textLength="1036.181102" font-size="666.653543" lengthAdjust="spacingAndGlyphs"
text-anchor="middle" opacity="0">R5</text>
<g class="stroked-text"><desc>R5</desc>
<path d="M62916 32226
L62750 31988
" />
<path d="M62630 32226
L62630 31726
L62821 31726
L62869 31750
L62892 31773
L62916 31821
L62916 31892
L62892 31940
L62869 31964
L62821 31988
L62630 31988
" />
<path d="M63369 31726
L63130 31726
L63107 31964
L63130 31940
L63178 31916
L63297 31916
L63345 31940
L63369 31964
L63392 32011
L63392 32130
L63369 32178
L63345 32202
L63297 32226
L63178 32226
L63130 32202
L63107 32178
" />
</g><text x="63500.000000" y="33250.000000"
textLength="1893.346457" font-size="666.653543" lengthAdjust="spacingAndGlyphs"
text-anchor="middle" opacity="0">100k</text>
<g class="stroked-text"><desc>100k</desc>
<path d="M62964 33226
L62678 33226
" />
<path d="M62821 33226
L62821 32726
L62773 32797
L62726 32845
L62678 32869
" />
<path d="M63273 32726
L63321 32726
L63369 32750
L63392 32773
L63416 32821
L63440 32916
L63440 33035
L63416 33130
L63392 33178
L63369 33202
L63321 33226
L63273 33226
L63226 33202
L63202 33178
L63178 33130
L63154 33035
L63154 32916
L63178 32821
L63202 32773
L63226 32750
L63273 32726
" />
<path d="M63750 32726
L63797 32726
L63845 32750
L63869 32773
L63892 32821
L63916 32916
L63916 33035
L63892 33130
L63869 33178
L63845 33202
L63797 33226
L63750 33226
L63702 33202
L63678 33178
L63654 33130
L63630 33035
L63630 32916
L63654 32821
L63678 32773
L63702 32750
L63750 32726
" />
<path d="M64130 33226
L64130 32726
" />
<path d="M64178 33035
L64321 33226
" />
<path d="M64321 32892
L64130 33083
" />
</g></g>
</g>
<g style="fill:#008484; fill-opacity:0.0; 
stroke:#008484; stroke-width:60.000000; stroke-opacity:1; 
stroke-linecap:round; stroke-linejoin:round;">
<g >
</g>
<g style="fill:#840000; fill-opacity:0.0; 
stroke:#840000; stroke-width:60.000000; stroke-opacity:1; 
stroke-linecap:round; stroke-linejoin:round;">
</g>
<g style="fill:#840000; fill-opacity:0.0; 
stroke:#840000; stroke-width:80.000000; stroke-opacity:1; 
stroke-linecap:round; stroke-linejoin:round;">
<rect x="58700.000000" y="32800.000000" width="600.000000" height="1400.000000" rx="0.000000" />
</g>
<g style="fill:#840000; fill-opacity:0.0; 
stroke:#840000; stroke-width:60.000000; stroke-opacity:1; 
stroke-linecap:round; stroke-linejoin:round;">
<path d="M59000 32800
L59000 32500
" />
<path d="M59000 34200
L59000 34500
" />
</g>
<g style="fill:#008484; fill-opacity:0.0; 
stroke:#008484; stroke-width:60.000000; stroke-opacity:1; 
stroke-linecap:round; stroke-linejoin:round;">
<text x="60019.330709" y="33250.000000"
textLength="1036.181102" font-size="666.653543" lengthAdjust="spacingAndGlyphs"
text-anchor="middle" opacity="0">R3</text>
<g class="stroked-text"><desc>R3</desc>
<path d="M59935 33226
L59769 32988
" />
<path d="M59650 33226
L59650 32726
L59840 32726
L59888 32750
L59912 32773
L59935 32821
L59935 32892
L59912 32940
L59888 32964
L59840 32988
L59650 32988
" />
<path d="M60102 32726
L60412 32726
L60245 32916
L60316 32916
L60364 32940
L60388 32964
L60412 33011
L60412 33130
L60388 33178
L60364 33202
L60316 33226
L60174 33226
L60126 33202
L60102 33178
" />
</g><text x="60447.913386" y="34250.000000"
textLength="1893.346457" font-size="666.653543" lengthAdjust="spacingAndGlyphs"
text-anchor="middle" opacity="0">100k</text>
<g class="stroked-text"><desc>100k</desc>
<path d="M59912 34226
L59626 34226
" />
<path d="M59769 34226
L59769 33726
L59721 33797
L59674 33845
L59626 33869
" />
<path d="M60221 33726
L60269 33726
L60316 33750
L60340 33773
L60364 33821
L60388 33916
L60388 34035
L60364 34130
L60340 34178
L60316 34202
L60269 34226
L60221 34226
L60174 34202
L60150 34178
L60126 34130
L60102 34035
L60102 33916
L60126 33821
L60150 33773
L60174 33750
L60221 33726
" />
<path d="M60697 33726
L60745 33726
L60793 33750
L60816 33773
L60840 33821
L60864 33916
L60864 34035
L60840 34130
L60816 34178
L60793 34202
L60745 34226
L60697 34226
L60650 34202
L60626 34178
L60602 34130
L60578 34035
L60578 33916
L60602 33821
L60626 33773
L60650 33750
L60697 33726
" />
<path d="M61078 34226
L61078 33726
" />
<path d="M61126 34035
L61269 34226
" />
<path d="M61269 33892
L61078 34083
" />
</g></g>
</g>
<g style="fill:#008484; fill-opacity:0.0; 
stroke:#008484; stroke-width:60.000000; stroke-opacity:1; 
stroke-linecap:round; stroke-linejoin:round;">
<g >
</g>
<g style="fill:#840000; fill-opacity:0.0; 
stroke:#840000; stroke-width:60.000000; stroke-opacity:1; 
stroke-linecap:round; stroke-linejoin:round;">
</g>
<g style="fill:#840000; fill-opacity:0.0; 
stroke:#840000; stroke-width:130.000000; stroke-opacity:1; 
stroke-linecap:round; stroke-linejoin:round;">
<path style="fill:#840000; fill-opacity:0.0; 
stroke:#840000; stroke-width:130.000000; stroke-opacity:1; 
stroke-linecap:round; stroke-linejoin:round;fill:none"
d="M 56800.000000,30400.000000
56800.000000,31600.000000
" /> 
</g>
<g style="fill:#840000; fill-opacity:0.0; 
stroke:#840000; stroke-width:120.000000; stroke-opacity:1; 
stroke-linecap:round; stroke-linejoin:round;">
<path style="fill:#840000; fill-opacity:0.0; 
stroke:#840000; stroke-width:120.000000; stroke-opacity:1; 
stroke-linecap:round; stroke-linejoin:round;fill:none"
d="M 57200.000000,30400.000000
57200.000000,31600.000000
" /> 
</g>
<g style="fill:#840000; fill-opacity:0.0; 
stroke:#840000; stroke-width:60.000000; stroke-opacity:1; 
stroke-linecap:round; stroke-linejoin:round;">
<path d="M57200 31000
L58000 31000
" />
<path d="M56800 31000
L56000 31000
" />
</g>
<g style="fill:#008484; fill-opacity:0.0; 
stroke:#008484; stroke-width:60.000000; stroke-opacity:1; 
stroke-linecap:round; stroke-linejoin:round;">
<text x="57000.000000" y="28960.000000"
textLength="1036.181102" font-size="666.653543" lengthAdjust="spacingAndGlyphs"
text-anchor="middle" opacity="0">C1</text>
<g class="stroked-text"><desc>C1</desc>
<path d="M56916 28888
L56892 28912
L56821 28936
L56773 28936
L56702 28912
L56654 28864
L56630 28817
L56607 28721
L56607 28650
L56630 28555
L56654 28507
L56702 28460
L56773 28436
L56821 28436
L56892 28460
L56916 28483
" />
<path d="M57392 28936
L57107 28936
" />
<path d="M57250 28936
L57250 28436
L57202 28507
L57154 28555
L57107 28579
" />
</g><text x="57000.000000" y="29870.000000"
textLength="2369.527559" font-size="666.653543" lengthAdjust="spacingAndGlyphs"
text-anchor="middle" opacity="0">100nF</text>
<g class="stroked-text"><desc>100nF</desc>
<path d="M56226 29846
L55940 29846
" />
<path d="M56083 29846
L56083 29346
L56035 29417
L55988 29465
L55940 29489
" />
<path d="M56535 29346
L56583 29346
L56630 29370
L56654 29393
L56678 29441
L56702 29536
L56702 29655
L56678 29750
L56654 29798
L56630 29822
L56583 29846
L56535 29846
L56488 29822
L56464 29798
L56440 29750
L56416 29655
L56416 29536
L56440 29441
L56464 29393
L56488 29370
L56535 29346
" />
<path d="M57011 29346
L57059 29346
L57107 29370
L57130 29393
L57154 29441
L57178 29536
L57178 29655
L57154 29750
L57130 29798
L57107 29822
L57059 29846
L57011 29846
L56964 29822
L56940 29798
L56916 29750
L56892 29655
L56892 29536
L56916 29441
L56940 29393
L56964 29370
L57011 29346
" />
<path d="M57392 29512
L57392 29846
" />
<path d="M57392 29560
L57416 29536
L57464 29512
L57535 29512
L57583 29536
L57607 29584
L57607 29846
" />
<path d="M58011 29584
L57845 29584
" />
<path d="M57845 29846
L57845 29346
L58083 29346
" />
</g></g>
</g>
<g style="fill:#008484; fill-opacity:0.0; 
stroke:#008484; stroke-width:60.000000; stroke-opacity:1; 
stroke-linecap:round; stroke-linejoin:round;">
<g >
</g>
<g style="fill:#840000; fill-opacity:0.0; 
stroke:#840000; stroke-width:60.000000; stroke-opacity:1; 
stroke-linecap:round; stroke-linejoin:round;">
<path style="fill:#840000; fill-opacity:0.0; 
stroke:#840000; stroke-width:60.000000; stroke-opacity:1; 
stroke-linecap:round; stroke-linejoin:round;fill:none"
d="M 49000.000000,23500.000000
49000.000000,23000.000000
48600.000000,22750.000000
49000.000000,22500.000000
49400.000000,22750.000000
49000.000000,23000.000000
" /> 
<path d="M49000 23500
L49000 23500
" />
</g>
<g style="fill:#008484; fill-opacity:0.0; 
stroke:#008484; stroke-width:60.000000; stroke-opacity:1; 
stroke-linecap:round; stroke-linejoin:round;">
<text x="49000.000000" y="22020.000000"
textLength="3774.291339" font-size="666.653543" lengthAdjust="spacingAndGlyphs"
text-anchor="middle" opacity="0">PWR_FLAG</text>
<g class="stroked-text"><desc>PWR_FLAG</desc>
<path d="M47261 21996
L47261 21496
L47452 21496
L47500 21520
L47523 21543
L47547 21591
L47547 21662
L47523 21710
L47500 21734
L47452 21758
L47261 21758
" />
<path d="M47714 21496
L47833 21996
L47928 21639
L48023 21996
L48142 21496
" />
<path d="M48619 21996
L48452 21758
" />
<path d="M48333 21996
L48333 21496
L48523 21496
L48571 21520
L48595 21543
L48619 21591
L48619 21662
L48595 21710
L48571 21734
L48523 21758
L48333 21758
" />
<path d="M48714 22043
L49095 22043
" />
<path d="M49380 21734
L49214 21734
" />
<path d="M49214 21996
L49214 21496
L49452 21496
" />
<path d="M49880 21996
L49642 21996
L49642 21496
" />
<path d="M50023 21853
L50261 21853
" />
<path d="M49976 21996
L50142 21496
L50309 21996
" />
<path d="M50738 21520
L50690 21496
L50619 21496
L50547 21520
L50500 21567
L50476 21615
L50452 21710
L50452 21781
L50476 21877
L50500 21924
L50547 21972
L50619 21996
L50666 21996
L50738 21972
L50761 21948
L50761 21781
L50666 21781
" />
</g></g>
</g>
<g style="fill:#008484; fill-opacity:0.0; 
stroke:#008484; stroke-width:60.000000; stroke-opacity:1; 
stroke-linecap:round; stroke-linejoin:round;">
<g >
</g>
<g style="fill:#840000; fill-opacity:0.0; 
stroke:#840000; stroke-width:60.000000; stroke-opacity:1; 
stroke-linecap:round; stroke-linejoin:round;">
</g>
<g style="fill:#840000; fill-opacity:0.0; 
stroke:#840000; stroke-width:80.000000; stroke-opacity:1; 
stroke-linecap:round; stroke-linejoin:round;">
<rect x="49700.000000" y="25800.000000" width="600.000000" height="1400.000000" rx="0.000000" />
</g>
<g style="fill:#840000; fill-opacity:0.0; 
stroke:#840000; stroke-width:60.000000; stroke-opacity:1; 
stroke-linecap:round; stroke-linejoin:round;">
<path d="M50000 25800
L50000 25500
" />
<path d="M50000 27200
L50000 27500
" />
</g>
<g style="fill:#008484; fill-opacity:0.0; 
stroke:#008484; stroke-width:60.000000; stroke-opacity:1; 
stroke-linecap:round; stroke-linejoin:round;">
<text x="51019.330709" y="26250.000000"
textLength="1036.181102" font-size="666.653543" lengthAdjust="spacingAndGlyphs"
text-anchor="middle" opacity="0">R2</text>
<g class="stroked-text"><desc>R2</desc>
<path d="M50935 26226
L50769 25988
" />
<path d="M50650 26226
L50650 25726
L50840 25726
L50888 25750
L50912 25773
L50935 25821
L50935 25892
L50912 25940
L50888 25964
L50840 25988
L50650 25988
" />
<path d="M51126 25773
L51150 25750
L51197 25726
L51316 25726
L51364 25750
L51388 25773
L51412 25821
L51412 25869
L51388 25940
L51102 26226
L51412 26226
" />
</g><text x="51447.913386" y="27250.000000"
textLength="1893.346457" font-size="666.653543" lengthAdjust="spacingAndGlyphs"
text-anchor="middle" opacity="0">100k</text>
<g class="stroked-text"><desc>100k</desc>
<path d="M50912 27226
L50626 27226
" />
<path d="M50769 27226
L50769 26726
L50721 26797
L50674 26845
L50626 26869
" />
<path d="M51221 26726
L51269 26726
L51316 26750
L51340 26773
L51364 26821
L51388 26916
L51388 27035
L51364 27130
L51340 27178
L51316 27202
L51269 27226
L51221 27226
L51174 27202
L51150 27178
L51126 27130
L51102 27035
L51102 26916
L51126 26821
L51150 26773
L51174 26750
L51221 26726
" />
<path d="M51697 26726
L51745 26726
L51793 26750
L51816 26773
L51840 26821
L51864 26916
L51864 27035
L51840 27130
L51816 27178
L51793 27202
L51745 27226
L51697 27226
L51650 27202
L51626 27178
L51602 27130
L51578 27035
L51578 26916
L51602 26821
L51626 26773
L51650 26750
L51697 26726
" />
<path d="M52078 27226
L52078 26726
" />
<path d="M52126 27035
L52269 27226
" />
<path d="M52269 26892
L52078 27083
" />
</g></g>
</g>
<g style="fill:#008484; fill-opacity:0.0; 
stroke:#008484; stroke-width:60.000000; stroke-opacity:1; 
stroke-linecap:round; stroke-linejoin:round;">
<g >
</g>
<g style="fill:#840000; fill-opacity:0.0; 
stroke:#840000; stroke-width:60.000000; stroke-opacity:1; 
stroke-linecap:round; stroke-linejoin:round;">
<path style="fill:#840000; fill-opacity:0.0; 
stroke:#840000; stroke-width:60.000000; stroke-opacity:1; 
stroke-linecap:round; stroke-linejoin:round;fill:none"
d="M 88000.000000,36000.000000
88000.000000,36500.000000
88400.000000,36750.000000
88000.000000,37000.000000
87600.000000,36750.000000
88000.000000,36500.000000
" /> 
<path d="M88000 36000
L88000 36000
" />
</g>
<g style="fill:#008484; fill-opacity:0.0; 
stroke:#008484; stroke-width:60.000000; stroke-opacity:1; 
stroke-linecap:round; stroke-linejoin:round;">
<text x="87999.960630" y="37979.960630"
textLength="3774.291339" font-size="666.653543" lengthAdjust="spacingAndGlyphs"
text-anchor="middle" opacity="0">PWR_FLAG</text>
<g class="stroked-text"><desc>PWR_FLAG</desc>
<path d="M86261 37956
L86261 37456
L86452 37456
L86499 37479
L86523 37503
L86547 37551
L86547 37622
L86523 37670
L86499 37694
L86452 37718
L86261 37718
" />
<path d="M86714 37456
L86833 37956
L86928 37598
L87023 37956
L87142 37456
" />
<path d="M87618 37956
L87452 37718
" />
<path d="M87333 37956
L87333 37456
L87523 37456
L87571 37479
L87595 37503
L87618 37551
L87618 37622
L87595 37670
L87571 37694
L87523 37718
L87333 37718
" />
<path d="M87714 38003
L88095 38003
" />
<path d="M88380 37694
L88214 37694
" />
<path d="M88214 37956
L88214 37456
L88452 37456
" />
<path d="M88880 37956
L88642 37956
L88642 37456
" />
<path d="M89023 37813
L89261 37813
" />
<path d="M88976 37956
L89142 37456
L89309 37956
" />
<path d="M89738 37479
L89690 37456
L89618 37456
L89547 37479
L89499 37527
L89476 37575
L89452 37670
L89452 37741
L89476 37837
L89499 37884
L89547 37932
L89618 37956
L89666 37956
L89738 37932
L89761 37908
L89761 37741
L89666 37741
" />
</g></g>
</g>
<g style="fill:#008484; fill-opacity:0.0; 
stroke:#008484; stroke-width:60.000000; stroke-opacity:1; 
stroke-linecap:round; stroke-linejoin:round;">
<g >
</g>
<g style="fill:#840000; fill-opacity:0.0; 
stroke:#840000; stroke-width:60.000000; stroke-opacity:1; 
stroke-linecap:round; stroke-linejoin:round;">
</g>
<g style="fill:#840000; fill-opacity:1.0; 
stroke:#840000; stroke-width:60.000000; stroke-opacity:1; 
stroke-linecap:round; stroke-linejoin:round;">
<rect x="88700.000000" y="28550.000000" width="1600.000000" height="100.000000" rx="0.000000" />
<rect x="88700.000000" y="27300.000000" width="1600.000000" height="100.000000" rx="0.000000" />
<rect x="88980.000000" y="28780.000000" width="1020.000000" height="200.000000" rx="0.000000" />
<rect x="88980.000000" y="27530.000000" width="1020.000000" height="200.000000" rx="0.000000" />
</g>
<g style="fill:#840000; fill-opacity:0.0; 
stroke:#840000; stroke-width:60.000000; stroke-opacity:1; 
stroke-linecap:round; stroke-linejoin:round;">
<path style="fill:#840000; fill-opacity:0.0; 
stroke:#840000; stroke-width:60.000000; stroke-opacity:1; 
stroke-linecap:round; stroke-linejoin:round;fill:none"
d="M 89500.000000,28600.000000
89500.000000,28500.000000
" /> 
<path style="fill:#840000; fill-opacity:0.0; 
stroke:#840000; stroke-width:60.000000; stroke-opacity:1; 
stroke-linecap:round; stroke-linejoin:round;fill:none"
d="M 89500.000000,28400.000000
89500.000000,28300.000000
" /> 
<path style="fill:#840000; fill-opacity:0.0; 
stroke:#840000; stroke-width:60.000000; stroke-opacity:1; 
stroke-linecap:round; stroke-linejoin:round;fill:none"
d="M 89500.000000,28200.000000
89500.000000,28100.000000
" /> 
<path style="fill:#840000; fill-opacity:0.0; 
stroke:#840000; stroke-width:60.000000; stroke-opacity:1; 
stroke-linecap:round; stroke-linejoin:round;fill:none"
d="M 89500.000000,28000.000000
89500.000000,27900.000000
" /> 
<path style="fill:#840000; fill-opacity:0.0; 
stroke:#840000; stroke-width:60.000000; stroke-opacity:1; 
stroke-linecap:round; stroke-linejoin:round;fill:none"
d="M 89500.000000,27800.000000
89500.000000,27700.000000
" /> 
<path style="fill:#840000; fill-opacity:0.0; 
stroke:#840000; stroke-width:60.000000; stroke-opacity:1; 
stroke-linecap:round; stroke-linejoin:round;fill:none"
d="M 89500.000000,27300.000000
89500.000000,27000.000000
" /> 
</g>
<g style="fill:#840000; fill-opacity:0.0; 
stroke:#840000; stroke-width:100.000000; stroke-opacity:1; 
stroke-linecap:round; stroke-linejoin:round;">
<path style="fill:#840000; fill-opacity:0.0; 
stroke:#840000; stroke-width:100.000000; stroke-opacity:1; 
stroke-linecap:round; stroke-linejoin:round;fill:none"
d="M 89600.000000,26950.000000
90000.000000,26950.000000
" /> 
<path style="fill:#840000; fill-opacity:0.0; 
stroke:#840000; stroke-width:100.000000; stroke-opacity:1; 
stroke-linecap:round; stroke-linejoin:round;fill:none"
d="M 89800.000000,26750.000000
89800.000000,27150.000000
" /> 
</g>
<g style="fill:#840000; fill-opacity:0.0; 
stroke:#840000; stroke-width:60.000000; stroke-opacity:1; 
stroke-linecap:round; stroke-linejoin:round;">
<path d="M89500 27000
L89500 26000
" />
<path d="M89500 29000
L89500 30000
" />
</g>
<g style="fill:#008484; fill-opacity:0.0; 
stroke:#008484; stroke-width:60.000000; stroke-opacity:1; 
stroke-linecap:round; stroke-linejoin:round;">
<text x="91289.803150" y="27790.000000"
textLength="1417.125984" font-size="666.653543" lengthAdjust="spacingAndGlyphs"
text-anchor="middle" opacity="0">BT1</text>
<g class="stroked-text"><desc>BT1</desc>
<path d="M90896 27504
L90968 27528
L90992 27551
L91015 27599
L91015 27670
L90992 27718
L90968 27742
L90920 27766
L90730 27766
L90730 27266
L90896 27266
L90944 27290
L90968 27313
L90992 27361
L90992 27409
L90968 27456
L90944 27480
L90896 27504
L90730 27504
" />
<path d="M91158 27266
L91444 27266
" />
<path d="M91301 27766
L91301 27266
" />
<path d="M91873 27766
L91587 27766
" />
<path d="M91730 27766
L91730 27266
L91682 27337
L91635 27385
L91587 27409
" />
</g><text x="91992.204724" y="28700.000000"
textLength="2821.889764" font-size="666.653543" lengthAdjust="spacingAndGlyphs"
text-anchor="middle" opacity="0">9V PP3</text>
<g class="stroked-text"><desc>9V PP3</desc>
<path d="M90754 28676
L90849 28676
L90896 28652
L90920 28628
L90968 28557
L90992 28461
L90992 28271
L90968 28223
L90944 28200
L90896 28176
L90801 28176
L90754 28200
L90730 28223
L90706 28271
L90706 28390
L90730 28438
L90754 28461
L90801 28485
L90896 28485
L90944 28461
L90968 28438
L90992 28390
" />
<path d="M91135 28176
L91301 28676
L91468 28176
" />
<path d="M92015 28676
L92015 28176
L92206 28176
L92254 28200
L92277 28223
L92301 28271
L92301 28342
L92277 28390
L92254 28414
L92206 28438
L92015 28438
" />
<path d="M92515 28676
L92515 28176
L92706 28176
L92754 28200
L92777 28223
L92801 28271
L92801 28342
L92777 28390
L92754 28414
L92706 28438
L92515 28438
" />
<path d="M92968 28176
L93277 28176
L93111 28366
L93182 28366
L93230 28390
L93254 28414
L93277 28461
L93277 28580
L93254 28628
L93230 28652
L93182 28676
L93039 28676
L92992 28652
L92968 28628
" />
</g></g>
</g>
<g style="fill:#008484; fill-opacity:0.0; 
stroke:#008484; stroke-width:60.000000; stroke-opacity:1; 
stroke-linecap:round; stroke-linejoin:round;">
<g >
</g>
<g style="fill:#840000; fill-opacity:0.0; 
stroke:#840000; stroke-width:60.000000; stroke-opacity:1; 
stroke-linecap:round; stroke-linejoin:round;">
</g>
<g style="fill:#FFFFC2; fill-opacity:0.0; 
stroke:#FFFFC2; stroke-width:60.000000; stroke-opacity:1; 
stroke-linecap:round; stroke-linejoin:round;">
</g>
<g style="fill:#FFFFC2; fill-opacity:0.6; 
stroke:#FFFFC2; stroke-width:0.039370; stroke-opacity:1; 
stroke-linecap:round; stroke-linejoin:round;">
<path style="fill:#FFFFC2; fill-opacity:0.6; 
stroke:#FFFFC2; stroke-width:0.039370; stroke-opacity:1; 
stroke-linecap:round; stroke-linejoin:round;fill-rule:evenodd;"
d="M 67000.000000,28000.000000
71000.000000,30000.000000
67000.000000,32000.000000
Z" /> 
</g>
<g style="fill:#840000; fill-opacity:0.6; 
stroke:#840000; stroke-width:0.039370; stroke-opacity:1; 
stroke-linecap:round; stroke-linejoin:round;">
</g>
<g style="fill:#840000; fill-opacity:0.0; 
stroke:#840000; stroke-width:100.000000; stroke-opacity:1; 
stroke-linecap:round; stroke-linejoin:round;">
<path style="fill:#840000; fill-opacity:0.0; 
stroke:#840000; stroke-width:100.000000; stroke-opacity:1; 
stroke-linecap:round; stroke-linejoin:round;fill:none"
d="M 67000.000000,28000.000000
71000.000000,30000.000000
67000.000000,32000.000000
Z" /> 
<path style="fill:#840000; fill-opacity:0.0; 
stroke:#840000; stroke-width:100.000000; stroke-opacity:1; 
stroke-linecap:round; stroke-linejoin:round;fill:none"
d="M 67000.000000,28000.000000
71000.000000,30000.000000
67000.000000,32000.000000
Z" /> 
</g>
<g style="fill:#840000; fill-opacity:0.0; 
stroke:#840000; stroke-width:60.000000; stroke-opacity:1; 
stroke-linecap:round; stroke-linejoin:round;">
<path d="M67000 29000
L66000 29000
" />
</g>
<g style="fill:#008484; fill-opacity:0.0; 
stroke:#008484; stroke-width:60.000000; stroke-opacity:1; 
stroke-linecap:round; stroke-linejoin:round;">
<text x="67050.000000" y="29250.000000"
textLength="679.055118" font-size="666.653543" lengthAdjust="spacingAndGlyphs"
text-anchor="start" opacity="0">-</text>
<g class="stroked-text"><desc>-</desc>
<path d="M67199 29035
L67580 29035
" />
</g></g>
<g style="fill:#840000; fill-opacity:0.0; 
stroke:#840000; stroke-width:60.000000; stroke-opacity:1; 
stroke-linecap:round; stroke-linejoin:round;">
<text x="66500.000000" y="28900.000000"
textLength="536.181102" font-size="666.653543" lengthAdjust="spacingAndGlyphs"
text-anchor="middle" opacity="0">2</text>
<g class="stroked-text"><desc>2</desc>
<path d="M66357 28423
L66380 28400
L66428 28376
L66547 28376
L66595 28400
L66619 28423
L66642 28471
L66642 28519
L66619 28590
L66333 28876
L66642 28876
" />
</g><path d="M67000 31000
L66000 31000
" />
</g>
<g style="fill:#008484; fill-opacity:0.0; 
stroke:#008484; stroke-width:60.000000; stroke-opacity:1; 
stroke-linecap:round; stroke-linejoin:round;">
<text x="67050.000000" y="31250.000000"
textLength="679.055118" font-size="666.653543" lengthAdjust="spacingAndGlyphs"
text-anchor="start" opacity="0">+</text>
<g class="stroked-text"><desc>+</desc>
<path d="M67199 31035
L67580 31035
" />
<path d="M67389 31226
L67389 30845
" />
</g></g>
<g style="fill:#840000; fill-opacity:0.0; 
stroke:#840000; stroke-width:60.000000; stroke-opacity:1; 
stroke-linecap:round; stroke-linejoin:round;">
<text x="66500.000000" y="30900.000000"
textLength="536.181102" font-size="666.653543" lengthAdjust="spacingAndGlyphs"
text-anchor="middle" opacity="0">3</text>
<g class="stroked-text"><desc>3</desc>
<path d="M66333 30376
L66642 30376
L66476 30566
L66547 30566
L66595 30590
L66619 30614
L66642 30661
L66642 30780
L66619 30828
L66595 30852
L66547 30876
L66404 30876
L66357 30852
L66333 30828
" />
</g><path d="M69000 31000
L69000 32500
" />
</g>
<g style="fill:#008484; fill-opacity:0.0; 
stroke:#008484; stroke-width:60.000000; stroke-opacity:1; 
stroke-linecap:round; stroke-linejoin:round;">
<g transform="rotate(-90.000000 69000.000000 30950.000000)">
<text x="69000.000000" y="31200.000000"
textLength="1107.637795" font-size="666.653543" lengthAdjust="spacingAndGlyphs"
text-anchor="start" opacity="0">V-</text>
</g>
<g class="stroked-text"><desc>V-</desc>
<path d="M68726 30872
L69226 30705
L68726 30539
" />
<path d="M69035 30372
L69035 29991
" />
</g></g>
<g style="fill:#840000; fill-opacity:0.0; 
stroke:#840000; stroke-width:60.000000; stroke-opacity:1; 
stroke-linecap:round; stroke-linejoin:round;">
<g transform="rotate(-90.000000 68900.000000 31750.000000)">
<text x="68900.000000" y="31750.000000"
textLength="536.181102" font-size="666.653543" lengthAdjust="spacingAndGlyphs"
text-anchor="middle" opacity="0">4</text>
</g>
<g class="stroked-text"><desc>4</desc>
<path d="M68542 31654
L68876 31654
" />
<path d="M68352 31773
L68709 31892
L68709 31583
" />
</g><path d="M71000 30000
L72000 30000
" />
<text x="71500.000000" y="29900.000000"
textLength="536.181102" font-size="666.653543" lengthAdjust="spacingAndGlyphs"
text-anchor="middle" opacity="0">6</text>
<g class="stroked-text"><desc>6</desc>
<path d="M71595 29376
L71500 29376
L71452 29400
L71428 29423
L71380 29495
L71357 29590
L71357 29780
L71380 29828
L71404 29852
L71452 29876
L71547 29876
L71595 29852
L71619 29828
L71642 29780
L71642 29661
L71619 29614
L71595 29590
L71547 29566
L71452 29566
L71404 29590
L71380 29614
L71357 29661
" />
</g><path d="M69000 29000
L69000 27500
" />
</g>
<g style="fill:#008484; fill-opacity:0.0; 
stroke:#008484; stroke-width:60.000000; stroke-opacity:1; 
stroke-linecap:round; stroke-linejoin:round;">
<g transform="rotate(-90.000000 69000.000000 29050.000000)">
<text x="69000.000000" y="29300.000000"
textLength="1107.637795" font-size="666.653543" lengthAdjust="spacingAndGlyphs"
text-anchor="end" opacity="0">V+</text>
</g>
<g class="stroked-text"><desc>V+</desc>
<path d="M68726 30080
L69226 29913
L68726 29746
" />
<path d="M69035 29580
L69035 29199
" />
<path d="M69226 29389
L68845 29389
" />
</g></g>
<g style="fill:#840000; fill-opacity:0.0; 
stroke:#840000; stroke-width:60.000000; stroke-opacity:1; 
stroke-linecap:round; stroke-linejoin:round;">
<g transform="rotate(-90.000000 68900.000000 28250.000000)">
<text x="68900.000000" y="28250.000000"
textLength="536.181102" font-size="666.653543" lengthAdjust="spacingAndGlyphs"
text-anchor="middle" opacity="0">7</text>
</g>
<g class="stroked-text"><desc>7</desc>
<path d="M68376 28416
L68376 28083
L68876 28297
" />
</g></g>
<g style="fill:#008484; fill-opacity:0.0; 
stroke:#008484; stroke-width:60.000000; stroke-opacity:1; 
stroke-linecap:round; stroke-linejoin:round;">
<text x="72941.259843" y="29790.000000"
textLength="1060.000000" font-size="666.653543" lengthAdjust="spacingAndGlyphs"
text-anchor="middle" opacity="0">U2</text>
<g class="stroked-text"><desc>U2</desc>
<path d="M72560 29266
L72560 29670
L72584 29718
L72607 29742
L72655 29766
L72750 29766
L72798 29742
L72822 29718
L72845 29670
L72845 29266
" />
<path d="M73060 29313
L73084 29290
L73131 29266
L73250 29266
L73298 29290
L73322 29313
L73345 29361
L73345 29409
L73322 29480
L73036 29766
L73345 29766
" />
</g><text x="71019.330709" y="31750.000000"
textLength="2036.181102" font-size="666.653543" lengthAdjust="spacingAndGlyphs"
text-anchor="middle" opacity="0">OP07</text>
<g class="stroked-text"><desc>OP07</desc>
<path d="M70245 31226
L70340 31226
L70388 31250
L70435 31297
L70459 31392
L70459 31559
L70435 31654
L70388 31702
L70340 31726
L70245 31726
L70197 31702
L70150 31654
L70126 31559
L70126 31392
L70150 31297
L70197 31250
L70245 31226
" />
<path d="M70674 31726
L70674 31226
L70864 31226
L70912 31250
L70935 31273
L70959 31321
L70959 31392
L70935 31440
L70912 31464
L70864 31488
L70674 31488
" />
<path d="M71269 31226
L71316 31226
L71364 31250
L71388 31273
L71412 31321
L71435 31416
L71435 31535
L71412 31630
L71388 31678
L71364 31702
L71316 31726
L71269 31726
L71221 31702
L71197 31678
L71174 31630
L71150 31535
L71150 31416
L71174 31321
L71197 31273
L71221 31250
L71269 31226
" />
<path d="M71602 31226
L71935 31226
L71721 31726
" />
</g></g>
</g>
<g style="fill:#008484; fill-opacity:0.0; 
stroke:#008484; stroke-width:60.000000; stroke-opacity:1; 
stroke-linecap:round; stroke-linejoin:round;">
<g >
</g>
<g style="fill:#840000; fill-opacity:0.0; 
stroke:#840000; stroke-width:60.000000; stroke-opacity:1; 
stroke-linecap:round; stroke-linejoin:round;">
</g>
<g style="fill:#840000; fill-opacity:0.0; 
stroke:#840000; stroke-width:80.000000; stroke-opacity:1; 
stroke-linecap:round; stroke-linejoin:round;">
<rect x="59700.000000" y="27300.000000" width="600.000000" height="1400.000000" rx="0.000000" />
</g>
<g style="fill:#840000; fill-opacity:0.0; 
stroke:#840000; stroke-width:60.000000; stroke-opacity:1; 
stroke-linecap:round; stroke-linejoin:round;">
<path d="M60000 27300
L60000 27000
" />
<path d="M60000 28700
L60000 29000
" />
</g>
<g style="fill:#008484; fill-opacity:0.0; 
stroke:#008484; stroke-width:60.000000; stroke-opacity:1; 
stroke-linecap:round; stroke-linejoin:round;">
<text x="61109.330709" y="27790.000000"
textLength="1036.181102" font-size="666.653543" lengthAdjust="spacingAndGlyphs"
text-anchor="middle" opacity="0">R4</text>
<g class="stroked-text"><desc>R4</desc>
<path d="M61025 27766
L60859 27528
" />
<path d="M60740 27766
L60740 27266
L60930 27266
L60978 27290
L61002 27313
L61025 27361
L61025 27432
L61002 27480
L60978 27504
L60930 27528
L60740 27528
" />
<path d="M61454 27432
L61454 27766
" />
<path d="M61335 27242
L61216 27599
L61525 27599
" />
</g><text x="61537.913386" y="28700.000000"
textLength="1893.346457" font-size="666.653543" lengthAdjust="spacingAndGlyphs"
text-anchor="middle" opacity="0">100k</text>
<g class="stroked-text"><desc>100k</desc>
<path d="M61002 28676
L60716 28676
" />
<path d="M60859 28676
L60859 28176
L60811 28247
L60764 28295
L60716 28319
" />
<path d="M61311 28176
L61359 28176
L61406 28200
L61430 28223
L61454 28271
L61478 28366
L61478 28485
L61454 28580
L61430 28628
L61406 28652
L61359 28676
L61311 28676
L61264 28652
L61240 28628
L61216 28580
L61192 28485
L61192 28366
L61216 28271
L61240 28223
L61264 28200
L61311 28176
" />
<path d="M61787 28176
L61835 28176
L61883 28200
L61906 28223
L61930 28271
L61954 28366
L61954 28485
L61930 28580
L61906 28628
L61883 28652
L61835 28676
L61787 28676
L61740 28652
L61716 28628
L61692 28580
L61668 28485
L61668 28366
L61692 28271
L61716 28223
L61740 28200
L61787 28176
" />
<path d="M62168 28676
L62168 28176
" />
<path d="M62216 28485
L62359 28676
" />
<path d="M62359 28342
L62168 28533
" />
</g></g>
</g>
<g style="fill:#008484; fill-opacity:0.0; 
stroke:#008484; stroke-width:60.000000; stroke-opacity:1; 
stroke-linecap:round; stroke-linejoin:round;">
<g >
</g>
<g style="fill:#840000; fill-opacity:0.0; 
stroke:#840000; stroke-width:60.000000; stroke-opacity:1; 
stroke-linecap:round; stroke-linejoin:round;">
<path style="fill:#840000; fill-opacity:0.0; 
stroke:#840000; stroke-width:60.000000; stroke-opacity:1; 
stroke-linecap:round; stroke-linejoin:round;fill:none"
d="M 88000.000000,20000.000000
88000.000000,19500.000000
87600.000000,19250.000000
88000.000000,19000.000000
88400.000000,19250.000000
88000.000000,19500.000000
" /> 
<path d="M88000 20000
L88000 20000
" />
</g>
<g style="fill:#008484; fill-opacity:0.0; 
stroke:#008484; stroke-width:60.000000; stroke-opacity:1; 
stroke-linecap:round; stroke-linejoin:round;">
<text x="88000.000000" y="18520.000000"
textLength="3774.291339" font-size="666.653543" lengthAdjust="spacingAndGlyphs"
text-anchor="middle" opacity="0">PWR_FLAG</text>
<g class="stroked-text"><desc>PWR_FLAG</desc>
<path d="M86261 18496
L86261 17996
L86452 17996
L86500 18020
L86523 18043
L86547 18091
L86547 18162
L86523 18210
L86500 18234
L86452 18258
L86261 18258
" />
<path d="M86714 17996
L86833 18496
L86928 18139
L87023 18496
L87142 17996
" />
<path d="M87619 18496
L87452 18258
" />
<path d="M87333 18496
L87333 17996
L87523 17996
L87571 18020
L87595 18043
L87619 18091
L87619 18162
L87595 18210
L87571 18234
L87523 18258
L87333 18258
" />
<path d="M87714 18543
L88095 18543
" />
<path d="M88380 18234
L88214 18234
" />
<path d="M88214 18496
L88214 17996
L88452 17996
" />
<path d="M88880 18496
L88642 18496
L88642 17996
" />
<path d="M89023 18353
L89261 18353
" />
<path d="M88976 18496
L89142 17996
L89309 18496
" />
<path d="M89738 18020
L89690 17996
L89619 17996
L89547 18020
L89500 18067
L89476 18115
L89452 18210
L89452 18281
L89476 18377
L89500 18424
L89547 18472
L89619 18496
L89666 18496
L89738 18472
L89761 18448
L89761 18281
L89666 18281
" />
</g></g>
</g>
<g style="fill:#008484; fill-opacity:0.0; 
stroke:#008484; stroke-width:60.000000; stroke-opacity:1; 
stroke-linecap:round; stroke-linejoin:round;">
<g >
</g>
<g style="fill:#840000; fill-opacity:0.0; 
stroke:#840000; stroke-width:60.000000; stroke-opacity:1; 
stroke-linecap:round; stroke-linejoin:round;">
</g>
<g style="fill:#840000; fill-opacity:1.0; 
stroke:#840000; stroke-width:60.000000; stroke-opacity:1; 
stroke-linecap:round; stroke-linejoin:round;">
<rect x="76620.000000" y="29400.000000" width="150.000000" height="1200.000000" rx="0.000000" />
</g>
<g style="fill:#840000; fill-opacity:0.0; 
stroke:#840000; stroke-width:60.000000; stroke-opacity:1; 
stroke-linecap:round; stroke-linejoin:round;">
<rect x="76230.000000" y="29400.000000" width="150.000000" height="1200.000000" rx="0.000000" />
<path style="fill:#840000; fill-opacity:0.0; 
stroke:#840000; stroke-width:60.000000; stroke-opacity:1; 
stroke-linecap:round; stroke-linejoin:round;fill:none"
d="M 75900.000000,30500.000000
75900.000000,30300.000000
" /> 
<path style="fill:#840000; fill-opacity:0.0; 
stroke:#840000; stroke-width:60.000000; stroke-opacity:1; 
stroke-linecap:round; stroke-linejoin:round;fill:none"
d="M 76000.000000,30400.000000
75800.000000,30400.000000
" /> 
<path d="M76230 30000
L75500 30000
" />
<path d="M76770 30000
L77500 30000
" />
</g>
<g style="fill:#008484; fill-opacity:0.0; 
stroke:#008484; stroke-width:60.000000; stroke-opacity:1; 
stroke-linecap:round; stroke-linejoin:round;">
<text x="76499.960630" y="27999.960630"
textLength="1036.181102" font-size="666.653543" lengthAdjust="spacingAndGlyphs"
text-anchor="middle" opacity="0">C2</text>
<g class="stroked-text"><desc>C2</desc>
<path d="M76416 27928
L76392 27952
L76321 27976
L76273 27976
L76202 27952
L76154 27904
L76130 27857
L76107 27761
L76107 27690
L76130 27595
L76154 27547
L76202 27499
L76273 27476
L76321 27476
L76392 27499
L76416 27523
" />
<path d="M76607 27523
L76630 27499
L76678 27476
L76797 27476
L76845 27499
L76868 27523
L76892 27571
L76892 27618
L76868 27690
L76583 27976
L76892 27976
" />
</g><text x="76500.000000" y="28909.960630"
textLength="1940.944882" font-size="666.653543" lengthAdjust="spacingAndGlyphs"
text-anchor="middle" opacity="0">100u</text>
<g class="stroked-text"><desc>100u</desc>
<path d="M75940 28886
L75654 28886
" />
<path d="M75797 28886
L75797 28386
L75750 28457
L75702 28505
L75654 28528
" />
<path d="M76250 28386
L76297 28386
L76345 28409
L76369 28433
L76392 28481
L76416 28576
L76416 28695
L76392 28790
L76369 28838
L76345 28862
L76297 28886
L76250 28886
L76202 28862
L76178 28838
L76154 28790
L76130 28695
L76130 28576
L76154 28481
L76178 28433
L76202 28409
L76250 28386
" />
<path d="M76726 28386
L76773 28386
L76821 28409
L76845 28433
L76869 28481
L76892 28576
L76892 28695
L76869 28790
L76845 28838
L76821 28862
L76773 28886
L76726 28886
L76678 28862
L76654 28838
L76630 28790
L76607 28695
L76607 28576
L76630 28481
L76654 28433
L76678 28409
L76726 28386
" />
<path d="M77321 28552
L77321 28886
" />
<path d="M77107 28552
L77107 28814
L77130 28862
L77178 28886
L77250 28886
L77297 28862
L77321 28838
" />
</g></g>
</g>
<g style="fill:#008484; fill-opacity:0.0; 
stroke:#008484; stroke-width:60.000000; stroke-opacity:1; 
stroke-linecap:round; stroke-linejoin:round;">
<g >
</g>
<g style="fill:#840000; fill-opacity:0.0; 
stroke:#840000; stroke-width:60.000000; stroke-opacity:1; 
stroke-linecap:round; stroke-linejoin:round;">
</g>
<g style="fill:#FFFFC2; fill-opacity:0.0; 
stroke:#FFFFC2; stroke-width:60.000000; stroke-opacity:1; 
stroke-linecap:round; stroke-linejoin:round;">
</g>
<g style="fill:#FFFFC2; fill-opacity:0.6; 
stroke:#FFFFC2; stroke-width:0.039370; stroke-opacity:1; 
stroke-linecap:round; stroke-linejoin:round;">
<rect x="80000.000000" y="28000.000000" width="3000.000000" height="3500.000000" rx="0.000000" />
</g>
<g style="fill:#840000; fill-opacity:0.6; 
stroke:#840000; stroke-width:0.039370; stroke-opacity:1; 
stroke-linecap:round; stroke-linejoin:round;">
</g>
<g style="fill:#840000; fill-opacity:0.0; 
stroke:#840000; stroke-width:100.000000; stroke-opacity:1; 
stroke-linecap:round; stroke-linejoin:round;">
<rect x="80000.000000" y="28000.000000" width="3000.000000" height="3500.000000" rx="0.000000" />
</g>
<g style="fill:#840000; fill-opacity:1.0; 
stroke:#840000; stroke-width:100.000000; stroke-opacity:1; 
stroke-linecap:round; stroke-linejoin:round;">
<rect x="83000.000000" y="28000.000000" width="500.000000" height="1000.000000" rx="0.000000" />
</g>
<g style="fill:#840000; fill-opacity:0.0; 
stroke:#840000; stroke-width:100.000000; stroke-opacity:1; 
stroke-linecap:round; stroke-linejoin:round;">
<path style="fill:#840000; fill-opacity:0.0; 
stroke:#840000; stroke-width:100.000000; stroke-opacity:1; 
stroke-linecap:round; stroke-linejoin:round;fill:none"
d="M 81000.000000,29000.000000
80750.000000,28750.000000
80500.000000,29000.000000
80000.000000,29000.000000
" /> 
<path style="fill:#840000; fill-opacity:0.0; 
stroke:#840000; stroke-width:100.000000; stroke-opacity:1; 
stroke-linecap:round; stroke-linejoin:round;fill:none"
d="M 81750.000000,29000.000000
81500.000000,28750.000000
81250.000000,29000.000000
81250.000000,30000.000000
80000.000000,30000.000000
" /> 
<path style="fill:#840000; fill-opacity:0.0; 
stroke:#840000; stroke-width:100.000000; stroke-opacity:1; 
stroke-linecap:round; stroke-linejoin:round;fill:none"
d="M 80000.000000,31000.000000
82000.000000,31000.000000
82000.000000,29000.000000
82250.000000,28750.000000
82500.000000,29000.000000
" /> 
<rect x="80000.000000" y="28000.000000" width="3000.000000" height="3500.000000" rx="0.000000" />
</g>
<g style="fill:#840000; fill-opacity:0.0; 
stroke:#840000; stroke-width:60.000000; stroke-opacity:1; 
stroke-linecap:round; stroke-linejoin:round;">
<path d="M81000 28000
L81000 27000
" />
<g transform="rotate(-90.000000 80900.000000 27500.000000)">
<text x="80900.000000" y="27500.000000"
textLength="560.000000" font-size="666.653543" lengthAdjust="spacingAndGlyphs"
text-anchor="middle" opacity="0">G</text>
</g>
<g class="stroked-text"><desc>G</desc>
<path d="M80400 27369
L80376 27416
L80376 27488
L80400 27559
L80447 27607
L80495 27630
L80590 27654
L80661 27654
L80757 27630
L80804 27607
L80852 27559
L80876 27488
L80876 27440
L80852 27369
L80828 27345
L80661 27345
L80661 27440
" />
</g><path d="M80000 30000
L79000 30000
" />
<text x="79500.000000" y="29900.000000"
textLength="560.000000" font-size="666.653543" lengthAdjust="spacingAndGlyphs"
text-anchor="middle" opacity="0">R</text>
<g class="stroked-text"><desc>R</desc>
<path d="M79654 29876
L79488 29638
" />
<path d="M79369 29876
L79369 29376
L79559 29376
L79607 29400
L79630 29423
L79654 29471
L79654 29542
L79630 29590
L79607 29614
L79559 29638
L79369 29638
" />
</g><path d="M80000 31000
L79000 31000
" />
<text x="79500.000000" y="30900.000000"
textLength="536.181102" font-size="666.653543" lengthAdjust="spacingAndGlyphs"
text-anchor="middle" opacity="0">S</text>
<g class="stroked-text"><desc>S</desc>
<path d="M79357 30852
L79428 30876
L79547 30876
L79595 30852
L79619 30828
L79642 30780
L79642 30733
L79619 30685
L79595 30661
L79547 30638
L79452 30614
L79404 30590
L79380 30566
L79357 30519
L79357 30471
L79380 30423
L79404 30400
L79452 30376
L79571 30376
L79642 30400
" />
</g><path d="M80000 29000
L79000 29000
" />
<text x="79500.000000" y="28900.000000"
textLength="440.944882" font-size="666.653543" lengthAdjust="spacingAndGlyphs"
text-anchor="middle" opacity="0">T</text>
<g class="stroked-text"><desc>T</desc>
<path d="M79357 28376
L79642 28376
" />
<path d="M79500 28876
L79500 28376
" />
</g></g>
<g style="fill:#008484; fill-opacity:0.0; 
stroke:#008484; stroke-width:60.000000; stroke-opacity:1; 
stroke-linecap:round; stroke-linejoin:round;">
<text x="83789.803150" y="29539.960630"
textLength="917.125984" font-size="666.653543" lengthAdjust="spacingAndGlyphs"
text-anchor="middle" opacity="0">J1</text>
<g class="stroked-text"><desc>J1</desc>
<path d="M83623 29016
L83623 29373
L83599 29444
L83551 29492
L83480 29516
L83432 29516
" />
<path d="M84123 29516
L83837 29516
" />
<path d="M83980 29516
L83980 29016
L83932 29087
L83885 29135
L83837 29158
" />
</g></g>
</g>
<g style="fill:#008484; fill-opacity:0.0; 
stroke:#008484; stroke-width:60.000000; stroke-opacity:1; 
stroke-linecap:round; stroke-linejoin:round;">
</g>
<g style="fill:#008400; fill-opacity:0.0; 
stroke:#008400; stroke-width:60.000000; stroke-opacity:1; 
stroke-linecap:round; stroke-linejoin:round;">
<path d="M81000 26000
L81000 27000
" />
<path d="M88000 36000
L79000 36000
" />
<path d="M60000 20000
L60000 27000
" />
<path d="M79000 29000
L79000 30000
" />
<path d="M69000 20000
L88000 20000
" />
<path d="M89500 20000
L89500 26000
" />
<path d="M88000 20000
L89500 20000
" />
<path d="M69000 36000
L79000 36000
" />
<path d="M77500 30000
L79000 30000
" />
<path d="M63500 31000
L66000 31000
" />
<path d="M69000 20000
L69000 27500
" />
<path d="M60000 20000
L69000 20000
" />
<path d="M79000 31000
L79000 36000
" />
<path d="M89500 30000
L89500 36000
" />
<path d="M89500 36000
L88000 36000
" />
<path d="M72000 30000
L75500 30000
" />
<path d="M66000 26500
L72000 26500
" />
<path d="M59000 36000
L69000 36000
" />
<path d="M44000 20000
L60000 20000
" />
<path d="M49000 23500
L49000 24000
" />
<path d="M66000 26500
L66000 29000
" />
<path d="M72000 26500
L72000 30000
" />
<path d="M50000 27500
L50000 29500
" />
<path d="M54500 33000
L54500 31000
" />
<path d="M54500 31000
L56000 31000
" />
<path d="M51500 33000
L54500 33000
" />
<path d="M69000 32500
L69000 36000
" />
<path d="M44000 21000
L44000 20000
" />
<path d="M44000 23000
L44000 24000
" />
<path d="M46500 24000
L44000 24000
" />
<path d="M60000 29000
L60000 31000
" />
<path d="M49000 24000
L50000 24000
" />
<path d="M44000 24000
L44000 27500
" />
<path d="M44000 29500
L50000 29500
" />
<path d="M46500 25000
L46500 24000
" />
<path d="M50000 24000
L50000 25500
" />
<path d="M46500 24000
L49000 24000
" />
<path d="M59000 31000
L60000 31000
" />
<path d="M58000 31000
L59000 31000
" />
<path d="M50000 36000
L59000 36000
" />
<path d="M59000 34500
L59000 36000
" />
<path d="M59000 32500
L59000 31000
" />
<path d="M60000 31000
L61500 31000
" />
<path d="M50000 29500
L50000 31500
" />
<path d="M50000 34500
L50000 36000
" />
<path d="M44000 36000
L46500 36000
" />
<path d="M46500 36000
L50000 36000
" />
<path d="M44000 31500
L44000 36000
" />
<path d="M46500 28000
L46500 36000
" />
</g>
<g style="fill:#000084; fill-opacity:0.0; 
stroke:#000084; stroke-width:60.000000; stroke-opacity:1; 
stroke-linecap:round; stroke-linejoin:round;">
<path d="M80760 25760
L81240 26240
" />
<path d="M81240 25760
L80760 26240
" />
</g>
<g style="fill:#008400; fill-opacity:0.0; 
stroke:#008400; stroke-width:60.000000; stroke-opacity:1; 
stroke-linecap:round; stroke-linejoin:round;">
</g>
<g style="fill:#008400; fill-opacity:1.0; 
stroke:#008400; stroke-width:60.000000; stroke-opacity:1; 
stroke-linecap:round; stroke-linejoin:round;">
<circle cx="60000.000000" cy="31000.000000" r="180.000000" /> 
<circle cx="69000.000000" cy="36000.000000" r="180.000000" /> 
<circle cx="72000.000000" cy="30000.000000" r="180.000000" /> 
<circle cx="79000.000000" cy="36000.000000" r="180.000000" /> 
<circle cx="88000.000000" cy="36000.000000" r="180.000000" /> 
<circle cx="79000.000000" cy="30000.000000" r="180.000000" /> 
<circle cx="88000.000000" cy="20000.000000" r="180.000000" /> 
<circle cx="69000.000000" cy="20000.000000" r="180.000000" /> 
<circle cx="60000.000000" cy="20000.000000" r="180.000000" /> 
<circle cx="49000.000000" cy="24000.000000" r="180.000000" /> 
<circle cx="50000.000000" cy="29500.000000" r="180.000000" /> 
<circle cx="44000.000000" cy="24000.000000" r="180.000000" /> 
<circle cx="46500.000000" cy="24000.000000" r="180.000000" /> 
<circle cx="59000.000000" cy="31000.000000" r="180.000000" /> 
<circle cx="50000.000000" cy="36000.000000" r="180.000000" /> 
<circle cx="59000.000000" cy="36000.000000" r="180.000000" /> 
<circle cx="46500.000000" cy="36000.000000" r="180.000000" /> 
</g> 
</svg>
